<svg id="Layer_1" data-name="Layer 1" xmlns="http://www.w3.org/2000/svg" viewBox="0 0 1280 800"><defs><style>.cls-1{fill:none;}.cls-2{isolation:isolate;}.cls-3{fill:#1e1e1e;}</style></defs><title>DC Port BG</title><rect class="cls-1" x="-4.64" y="-4.01" width="1285.19" height="801.93"/><g id="DC" class="cls-2"><g class="cls-2"><path class="cls-3" d="M1042.69-380.38l225.68,225.69Q1349.28-73.8,1380.5,19.18t9.58,183.46q-21.66,90.48-96.16,165t-165,96.17q-90.5,21.65-183.45-9.58T771.58,342.1L545.9,116.41ZM860.29,242q74.52,74.52,160.4,77.36t156.84-68.14q71-71,68.13-156.84T1168.3-66l-105-105-308,308Z"/><path class="cls-3" d="M1257,778.55q-28.4-94.39-5-188.07T1349.27,423q73.8-73.8,167.49-97.23t188.07,5q94.37,28.38,171,105,64.58,64.56,94,139.45t22.35,152.94l-141.94-5.68q7.79-108.57-66.71-183.1-46.14-46.14-102.55-62.1a203.44,203.44,0,0,0-112.84,0q-56.43,16-102.55,62.1t-62.1,102.55a203.29,203.29,0,0,0,0,112.85q16,56.41,62.1,102.55,74.52,74.52,183.81,66l5.68,141.94q-78.8,7.8-154-22t-139.81-94.39Q1285.39,872.94,1257,778.55Z"/></g></g><g id="DC-2" class="cls-2"><g class="cls-2"><path class="cls-3" d="M50.06-273,275.75-47.3q80.89,80.91,112.13,173.88T397.46,310q-21.66,90.5-96.16,165t-165,96.16q-90.49,21.64-183.46-9.58T-221,449.49L-446.72,223.8Zm-182.39,622.4q74.52,74.52,160.39,77.36t156.85-68.13q71-71,68.13-156.85T175.68,41.41l-105-105-308,308Z"/><path class="cls-3" d="M264.38,885.94q-28.38-94.4-5-188.07t97.22-167.49q73.82-73.8,167.49-97.22t188.07,5q94.38,28.38,171,105,64.57,64.58,94,139.45t22.36,152.94l-141.94-5.67Q865.47,721.3,791,646.78q-46.14-46.15-102.55-62.1a203.26,203.26,0,0,0-112.84,0q-56.43,16-102.56,62.09T410.94,749.33a203.26,203.26,0,0,0,0,112.84q16,56.42,62.09,102.55,74.52,74.52,183.82,66l5.67,141.94q-78.79,7.8-154-22t-139.81-94.39Q292.77,980.33,264.38,885.94Z"/></g></g></svg>